<svg xmlns="http://www.w3.org/2000/svg" width="512" height="256" viewBox="0 0 512 256">
  <!-- 2 frames, each 256x256. Right side-wind version; mirror in code for left. -->
  <defs>
    <linearGradient id="bambooGrad" x1="0" y1="0" x2="0" y2="1">
      <stop offset="0" stop-color="#98F28A"/>
      <stop offset="1" stop-color="#2BB35D"/>
    </linearGradient>
    <linearGradient id="dressGrad" x1="0" y1="0" x2="1" y2="1">
      <stop offset="0" stop-color="#FFF6D6"/>
      <stop offset="1" stop-color="#FFB98F"/>
    </linearGradient>
    <filter id="glow" x="-60%" y="-60%" width="220%" height="220%">
      <feGaussianBlur stdDeviation="2.8" result="b"/>
      <feColorMatrix in="b" type="matrix" values="
        1 0 0 0 0
        0 1 0 0 0
        0 0 1 0 0
        0 0 0 .28 0" result="g"/>
      <feMerge>
        <feMergeNode in="g"/>
        <feMergeNode in="SourceGraphic"/>
      </feMerge>
    </filter>
    <g id="kaguyaSide" filter="url(#glow)">
      <!-- bamboo is pushed to the right -->
      <g transform="rotate(22)">
        <rect x="-12" y="-86" width="24" height="180" rx="10" fill="url(#bambooGrad)" stroke="rgba(0,0,0,.22)" stroke-width="2"/>
        <path d="M-12,-46 H12" stroke="rgba(0,0,0,.18)" stroke-width="2"/>
        <path d="M-12,-6 H12" stroke="rgba(0,0,0,.18)" stroke-width="2"/>
        <path d="M-12,34 H12" stroke="rgba(0,0,0,.18)" stroke-width="2"/>
      </g>

      <!-- princess -->
      <path d="M28,-40 C34,-66 12,-82 -16,-74 C-46,-66 -56,-40 -44,-16 C-34,4 -10,18 14,14 C30,10 36,-14 30,-26"
        fill="#261A1A"/>
      <ellipse cx="-6" cy="-50" rx="15" ry="13" fill="#FFE3D5"/>
      <circle cx="-11" cy="-52" r="2.2" fill="#261A1A"/>
      <circle cx="-2" cy="-52" r="2.2" fill="#261A1A"/>
      <path d="M-8,-44 C-5,-42 -2,-42 1,-44" stroke="rgba(120,50,60,.55)" stroke-width="2" fill="none" stroke-linecap="round"/>

      <path d="M4,-40 C26,-34 36,-16 34,6 C32,30 10,46 -16,44 C-40,42 -54,24 -50,2 C-46,-22 -22,-46 4,-40Z"
        fill="url(#dressGrad)" stroke="rgba(0,0,0,.16)" stroke-width="2"/>

      <!-- one hand covering skirt (explicit) -->
      <path d="M-10,-10 C-24,2 -24,18 -8,26" stroke="#FFE3D5" stroke-width="7" fill="none" stroke-linecap="round"/>

      <!-- other arm holding on -->
      <path d="M10,-18 C20,-10 24,2 20,18" stroke="#FFE3D5" stroke-width="6" fill="none" stroke-linecap="round"/>
    </g>

    <g id="wind">
      <path d="M-100,-34 C-66,-46 -42,-24 -8,-34" stroke="rgba(200,235,255,.35)" stroke-width="4" fill="none" stroke-linecap="round"/>
      <path d="M-92,-10 C-64,-20 -38,-2 -10,-12" stroke="rgba(200,235,255,.25)" stroke-width="3" fill="none" stroke-linecap="round"/>
      <path d="M-82,12 C-56,4 -36,18 -10,10" stroke="rgba(200,235,255,.18)" stroke-width="3" fill="none" stroke-linecap="round"/>
    </g>
  </defs>

  <!-- Frame 0: first hit by side wind -->
  <g transform="translate(128 138)">
    <use href="#wind" transform="translate(18,0) rotate(10)"/>
    <use href="#kaguyaSide" transform="rotate(10) translate(18,-12)"/>
  </g>

  <!-- Frame 1: struggling more, stronger lean + skirt cover -->
  <g transform="translate(384 138)">
    <use href="#wind" transform="translate(28,8) rotate(16) scale(1.05)"/>
    <use href="#kaguyaSide" transform="rotate(18) translate(22,-16)"/>
    <!-- extra wobble line -->
    <path d="M356,124 C372,120 388,128 398,142" stroke="rgba(255,255,255,.22)" stroke-width="4" fill="none" stroke-linecap="round"/>
  </g>
</svg>

